<?xml version="1.0" ?><!DOCTYPE svg  PUBLIC '-//W3C//DTD SVG 1.1//EN'  'http://www.w3.org/Graphics/SVG/1.1/DTD/svg11.dtd'><svg enable-background="new 0 0 512 512" height="512px" version="1.1" viewBox="0 0 512 512" width="512px" xml:space="preserve" xmlns="http://www.w3.org/2000/svg" xmlns:xlink="http://www.w3.org/1999/xlink"><g id="Layer_1"/><g id="Layer_2"><g><path d="M147.921,278.381c-0.002,0.016-1.263,10.113-2.527,21.749c-0.632,5.818-1.265,12.021-1.742,17.558    c-0.239,2.77-0.438,5.372-0.58,7.689c-0.141,2.32-0.225,4.346-0.226,6.025c0.001,3.297,0.271,6.527,1.041,9.673    c0.578,2.356,1.446,4.663,2.685,6.84c1.853,3.271,4.547,6.201,8.044,8.604c3.5,2.411,7.774,4.334,12.967,5.862    c7.111,2.084,15.458,3.691,23.417,3.7c3.065-0.001,6.08-0.242,8.969-0.834c2.167-0.445,4.267-1.09,6.249-2.01    c2.965-1.371,5.7-3.415,7.696-6.244c0.996-1.408,1.797-2.995,2.363-4.711c0.567-1.717,0.901-3.559,1.009-5.497    c0.508-9.144,0.935-21.039,1.236-30.672c0.301-9.631,0.476-16.986,0.476-16.994l-9.997-0.238c0,0.002-0.011,0.455-0.032,1.291    c-0.146,5.847-0.793,30.328-1.667,46.059c-0.121,2.051-0.606,3.462-1.284,4.581c-0.516,0.839-1.163,1.54-2.018,2.183    c-1.274,0.958-3.055,1.757-5.286,2.289c-2.223,0.536-4.866,0.8-7.714,0.798c-6.585,0.01-14.223-1.411-20.595-3.294    c-3.943-1.159-6.979-2.51-9.281-3.955c-1.729-1.085-3.05-2.217-4.095-3.397c-1.56-1.774-2.55-3.673-3.221-5.966    c-0.664-2.286-0.962-4.977-0.96-8.066c0-1.341,0.073-3.22,0.207-5.417c0.469-7.718,1.669-19.368,2.749-29.019    c0.541-4.83,1.051-9.171,1.426-12.302c0.188-1.565,0.341-2.828,0.448-3.699c0.106-0.871,0.166-1.345,0.166-1.347L147.921,278.381z    "/></g><path d="M227.902,116.763c-5.839,0-10.573,7.056-10.573,15.76s4.734,15.76,10.573,15.76c5.839,0,10.574-7.056,10.574-15.76   S233.742,116.763,227.902,116.763z M230.923,136.465c-2.502,0-4.531-3.024-4.531-6.754s2.029-6.754,4.531-6.754   c2.503,0,4.532,3.024,4.532,6.754S233.426,136.465,230.923,136.465z"/><path d="M283.934,129.601c0.513-0.946,1.065-1.585,1.527-1.942c0.475-0.359,0.821-0.465,1.184-0.47   c0.362,0.005,0.707,0.111,1.183,0.47c0.694,0.524,1.59,1.735,2.254,3.562c0.67,1.814,1.11,4.184,1.11,6.78h8.155   c-0.008-5.285-1.134-10.146-3.218-13.997c-1.048-1.921-2.352-3.599-3.952-4.844c-1.591-1.244-3.514-2.023-5.532-2.018   c-2.021-0.005-3.942,0.774-5.534,2.018c-2.398,1.879-4.14,4.685-5.332,7.913c-1.19,3.24-1.835,6.964-1.838,10.928h8.158   C282.087,134.537,282.894,131.48,283.934,129.601z"/><path d="M420.508,253.865c-3.287-4.821-6.812-9.257-10.315-13.251c0.273-0.427,0.567-0.855,0.824-1.279   c2.158-3.571,3.73-7.058,4.529-10.544c1.21-5.323,1.802-10.45,1.802-15.378c0.005-8.473-1.766-16.351-5.026-23.517   c-3.257-7.172-7.977-13.623-13.786-19.432l-5.519-5.519c-0.615-6.041-1.781-13.675-3.726-23.863   c-4.94-25.888-27.649-65.522-55.384-84.587C307,38,272.713,30.785,254.471,30.526C239.483,30.314,205,36,175.036,56.496   c-27.778,19-52.363,58.405-55.384,84.587c-1.717,14.877-2.229,24.361-2.071,31.366l-0.021,0.005c-0.407,0.1-3.25,0.745-6.566,3.05   c-1.65,1.155-3.414,2.746-4.931,4.895c-1.518,2.143-2.764,4.844-3.398,8.039c-0.997,4.982-1.5,7.497-1.754,8.769   c-0.656,0.808-1.519,1.979-2.397,3.511c-0.827,1.448-1.659,3.211-2.293,5.269c-0.633,2.056-1.064,4.413-1.064,6.994   c0,1.474,0.141,3.019,0.459,4.607c0.566,2.826,1.652,6.869,3.579,11.699c0.901,2.257,1.987,4.684,3.29,7.228   c-4.691,4.982-9.588,10.808-14.05,17.352c-15.104,22.153-31.595,62.469-29.203,85.593c3.021,29.203,7.049,30.21,17.119,24.168   c11.258-6.755,24.167-27.188,24.167-27.188s13.75,37.493,36.251,57.398c26.182,23.16,50.349,37.258,79.552,43.3   c19.057,3.942,31.677,4.455,38.149,4.335c6.472,0.12,19.091-0.393,38.148-4.335c29.203-6.042,53.369-20.14,79.553-43.3   c22.499-19.905,36.251-57.398,36.251-57.398s12.908,20.434,24.168,27.188c10.069,6.042,14.098,5.035,17.118-24.168   C452.102,316.334,435.612,276.019,420.508,253.865z M293.356,92.747c14.736,0,26.685,17.808,26.685,39.776   s-11.948,39.776-26.685,39.776c-14.737,0-26.686-17.808-26.686-39.776S278.619,92.747,293.356,92.747z M218.84,92.747   c14.737,0,26.685,17.808,26.685,39.776s-11.948,39.776-26.685,39.776c-14.738,0-26.685-17.808-26.685-39.776   S204.102,92.747,218.84,92.747z M199.204,186.396c18.325-7.854,51.768-9.657,60.368-9.999l0.051-0.071c0,0,0.354,0.009,1.007,0.032   c0.655-0.022,1.007-0.032,1.007-0.032l0.052,0.071c8.601,0.342,42.043,2.146,60.368,9.999c21.146,9.063,33.23,14.098,33.23,19.133   c0,5.035-4.028,10.07-15.105,15.105c-11.076,5.035-16.111,4.028-16.111,4.028s6.042-7.049,8.056-14.098   c0,0-30.184,24.987-66.606,27.125c-0.287,0.021-0.564,0.049-0.861,0.064l-0.258,0.007c-0.659,0.03-1.323,0.038-1.986,0.052   c-0.594,0.013-1.192,0.035-1.784,0.035s-1.188-0.021-1.783-0.035c-0.663-0.014-1.326-0.022-1.985-0.052l-0.259-0.007   c-0.297-0.015-0.573-0.043-0.862-0.064c-36.421-2.137-66.606-27.125-66.606-27.125c2.014,7.049,8.056,14.098,8.056,14.098   s-5.035,1.007-16.112-4.028c-11.077-5.035-15.104-10.07-15.104-15.105C165.973,200.495,178.057,195.459,199.204,186.396z    M107.962,204.46c0.364-0.529,0.687-0.93,0.898-1.178c0.105-0.124,0.184-0.209,0.225-0.254l0.026-0.028l1.048-1.048l0.297-1.484   c0,0,0,0,2.014-10.07c0.372-1.84,1.014-3.167,1.762-4.233c0.437-0.621,0.928-1.132,1.43-1.589c0.688,1.862,1.59,4.07,2.771,6.555   c2.647,5.567,6.671,12.479,12.671,19.719c8.994,10.86,22.459,22.439,42.186,31.232c19.725,8.8,45.662,14.811,79.585,14.809   c1.587,0,3.192-0.013,4.815-0.04c31.223-0.51,55.786-5.721,75.057-13.365c14.452-5.731,25.916-12.831,34.943-20.278   c13.548-11.171,21.591-23.102,26.234-32.282c1.305-2.579,2.335-4.93,3.155-7.002c2.477,3.227,4.537,6.588,6.137,10.11   c2.684,5.917,4.126,12.285,4.131,19.381c0,4.127-0.494,8.502-1.554,13.162c-0.46,2.052-1.563,4.67-3.33,7.578   c-3.083,5.102-8.151,11.067-14.723,17.123c-9.856,9.101-23.079,18.455-38.057,26.202c-14.979,7.754-31.717,13.907-48.605,16.771   c-10.684,1.814-21.749,2.639-32.904,2.639c-21.486,0.002-43.306-3.062-63.362-7.902c-20.054-4.837-38.354-11.457-52.764-18.47   c-17.796-8.666-28.917-20.078-35.922-30.512c-3.498-5.216-5.953-10.189-7.644-14.426c-1.691-4.233-2.62-7.742-3.061-9.951   c-0.186-0.929-0.265-1.808-0.265-2.646c0-1.467,0.243-2.82,0.622-4.053C106.344,207.081,107.23,205.518,107.962,204.46z    M356.061,387.794c-28.744,38.042-84.449,44.855-101.589,46.063c-17.142-1.208-72.846-8.021-101.589-46.063   c-34.238-45.314-28.196-93.649-24.168-107.748c0.924-3.235,2.128-6.514,3.461-9.685c4.604,3.261,9.745,6.349,15.498,9.146   c15.169,7.377,34.066,14.194,54.794,19.198c20.726,5,43.273,8.18,65.707,8.182c11.647,0,23.265-0.858,34.578-2.779   c27.634-4.709,54.111-17.341,74.54-31.677c0.084-0.06,0.164-0.119,0.248-0.179c1.021,2.575,1.946,5.197,2.688,7.793   C384.256,294.145,390.298,342.479,356.061,387.794z"/><path d="M133.771,398.675c-3.598-3.183-6.969-6.817-10.099-10.675c-4.531,2.563-10.186,6.019-13.893,9.195   c-5.513,4.727-8.056,12.084-3.021,13.091c0,0-23.491,23.441,17.119,40.28c41.286,17.118,86.601,12.083,108.754-3.021   c1.062-0.724,2.028-1.395,2.946-2.037c-6.076-0.634-13.474-1.717-22.255-3.533C184.12,435.933,159.953,421.835,133.771,398.675z"/><path d="M297.678,441.975c-8.782,1.816-16.18,2.899-22.256,3.533c0.918,0.643,1.885,1.313,2.946,2.037   c22.153,15.104,67.468,20.14,108.755,3.021c40.609-16.839,17.119-40.28,17.119-40.28c5.034-1.007,2.492-8.364-3.021-13.091   c-3.707-3.177-9.362-6.632-13.893-9.195c-3.131,3.857-6.502,7.492-10.1,10.675C351.047,421.835,326.88,435.933,297.678,441.975z"/></g></svg>